<svg xmlns="http://www.w3.org/2000/svg" viewBox="0 0 874 11"><defs><style>.cls-1{fill:#e6e6e6;}</style></defs><title>虚线</title><g id="图层_2" data-name="图层 2"><g id="图层_1-2" data-name="图层 1"><polygon class="cls-1" points="40.7 11 0 11 4.3 0 45 0 40.7 11"/><polygon class="cls-1" points="99.91 11 59.21 11 63.52 0 104.21 0 99.91 11"/><polygon class="cls-1" points="159.13 11 118.43 11 122.73 0 163.43 0 159.13 11"/><polygon class="cls-1" points="218.34 11 177.64 11 181.94 0 222.64 0 218.34 11"/><polygon class="cls-1" points="277.56 11 236.86 11 241.16 0 281.86 0 277.56 11"/><polygon class="cls-1" points="336.77 11 296.07 11 300.37 0 341.07 0 336.77 11"/><polygon class="cls-1" points="395.99 11 355.29 11 359.59 0 400.29 0 395.99 11"/><polygon class="cls-1" points="455.2 11 414.5 11 418.8 0 459.5 0 455.2 11"/><polygon class="cls-1" points="514.41 11 473.71 11 478.01 0 518.71 0 514.41 11"/><polygon class="cls-1" points="573.63 11 532.93 11 537.23 0 577.93 0 573.63 11"/><polygon class="cls-1" points="632.84 11 592.14 11 596.44 0 637.14 0 632.84 11"/><polygon class="cls-1" points="692.06 11 651.36 11 655.66 0 696.36 0 692.06 11"/><polygon class="cls-1" points="751.27 11 710.57 11 714.87 0 755.57 0 751.27 11"/><polygon class="cls-1" points="810.49 11 769.79 11 774.09 0 814.79 0 810.49 11"/><polygon class="cls-1" points="869.7 11 829 11 833.3 0 874 0 869.7 11"/></g></g></svg>