<svg xmlns="http://www.w3.org/2000/svg" viewBox="0 0 238.05 43.15"><defs><style>.cls-1{opacity:0.3;}.cls-2{fill:#fff;}</style></defs><title>资源 48自由组合</title><g id="图层_2" data-name="图层 2"><g id="图层_1-2" data-name="图层 1"><g class="cls-1"><path class="cls-2" d="M.31,31.78l.92-5.16h9.86l-.87,5.05c-.4,2.38.12,3.07,1.57,3.07,1.62,0,2.14-.93,2.43-2.55l.35-1.8c.64-3.48-2-5-4.75-6.78C6.57,21.46,3,19,4.13,12.35l.35-2C5.76,2.73,10.22,0,16.84,0c7.83,0,11.59,3.89,10.32,11l-.7,3.95H17.13L18,10.44c.4-2-.29-2.67-1.69-2.67s-2,1.1-2.38,3l-.29,1.51c-.52,2.72,1,3.59,4.7,6,3.37,2.2,7,5,6,11.25l-.47,2.84C22.4,40,18.92,43.15,11.15,43.15,1.58,43.15-1,38.92.31,31.78Z"/><path class="cls-2" d="M26.7,29l2.84-16.12C31.22,3.36,35.86.06,43.28.06,51.34.06,55.75,4.35,54,14.5L51.23,30C49.61,39.21,46,43.09,37.77,43.09,28.15,43.09,25.25,37.29,26.7,29Zm14.67.87,3-16.88c.58-3.3.17-4.52-1.68-4.52S40.09,9.74,39.51,13l-3,16.88c-.58,3.25,0,4.47,1.68,4.47C40,34.34,40.79,33.18,41.37,29.87Z"/><path class="cls-2" d="M61.21,42.46H52.39L59.7.7h8l3.36,16.24L80.17.7h8.18L81,42.46H72.17l3.65-20.83,1.33-4-.29.64L69.73,31H67.82L65,18.44v-.23l-.29,3.89Z"/><path class="cls-2" d="M105.05,42.46H84.64L92,.7h20.24l-1.51,8.58H99.89L98.5,17.05h9.68l-1.56,8.7H96.93L95.6,33.52h11Z"/><path class="cls-2" d="M129.35,9.34,123.5,42.46H114l5.86-33.12h-6.32L115,.7h22l-1.51,8.64Z"/><path class="cls-2" d="M149.77,26H145l-2.9,16.42H132.6L139.91.7h9.51l-2.84,16.24h4.76L154.18.7h9.51l-7.31,41.76h-9.51Z"/><path class="cls-2" d="M159.4,42.46,161,33.41h4.47L169.6,9.69h-4.46l1.56-9h18l-1.56,9h-4.35l-4.18,23.72H179l-1.57,9.05Z"/><path class="cls-2" d="M189,42.46h-8.58L187.76.7h8.52l3.66,20.41.35,3,.52-4.41,3.3-19h8.59l-7.31,41.76H197L193.21,22l-.35-3-.58,4.7Z"/><path class="cls-2" d="M225.69,36.66c-1.39,4.58-3.83,6.43-8.06,6.43-5.4,0-8.41-3.82-6.91-12.35L214,12.18C215.65,2.49,220.3.06,227.49.06c8.12,0,11.65,4.17,10.26,12.93l-.52,3.31h-10l.64-3.37c.58-3.13.41-4.46-1.45-4.46-1.68,0-2.09,1.27-2.67,4.52l-3,16.82c-.58,3.31-.29,4.58,1.56,4.58,1.68,0,2.84-1,3.48-4.52l.52-2.78h-2.84l1.45-8h11.78l-4.12,23.38h-7Z"/></g></g></g></svg>