<svg xmlns="http://www.w3.org/2000/svg" viewBox="0 0 252.6 76.26"><defs><style>.cls-1{fill:#3c3c3c;}</style></defs><title>资源 18</title><g id="图层_2" data-name="图层 2"><g id="图层_1-2" data-name="图层 1"><path class="cls-1" d="M0,46.93H12.22l1.41-5.87H25.34l-1.41,5.87h35.2V66l-1.6,10.24H46L47.61,66V56.53h-26L17,76.26H5.18L9.92,56.53H0ZM.77.64H59.26V38.93H.77ZM12.22,14.93h12V10.24h-12Zm0,14.4h12v-4.8h-12ZM35.77,10.24v4.69h12V10.24Zm12,19.09v-4.8h-12v4.8Z"/><path class="cls-1" d="M105.85,10.88H64.9V1.28h57.27V12L99.39,31v1.7H124v9.6H99.39V64.21L95.1,76.15H83.45l4.42-12.9V42.34H63.3v-9.6H87.87V26.13Z"/><path class="cls-1" d="M147.39,76.26,135.23,53.12h13.5l9.09,15.46L169.21,49H135.1v-7l2.31-8.75H125.76v-9.6H140L142,15.79H128.45V6.29h16.12L146.24,0h12.41L157,6.29h29.82v9.5H154.49l-2,7.78H189.5v9.6H150l-1.6,6.19h35.39v8.1l-15.49,28.8Z"/><path class="cls-1" d="M252.6,66.24v9.59H191.94V1.28H252.6v9.6H203.46V66.24ZM220,14.19l7.17,12.58,7.16-12.58h13.51l-14,24.31,14,24.43H234.62l-7.42-12.8-7.43,12.8H206.53L220.48,38.5,206.53,14.19Z"/></g></g></svg>