<svg xmlns="http://www.w3.org/2000/svg" viewBox="0 0 173.67 42.31"><defs><style>.cls-1{fill:#fff;}</style></defs><title>资源 23</title><g id="图层_2" data-name="图层 2"><g id="图层_1-2" data-name="图层 1"><path class="cls-1" d="M42,.24,39.91,5.38h5.71l-.94,5.31H28.85l-1.71,9.69H43.73l-.94,5.32H29.22L39.78,38.29l-.71,4H31.71l-10-12.18L7.27,42.31H0l.71-4,15-12.59H2.13l.94-5.32H19.62l1.71-9.69H5.53l.94-5.31h5.71L11.87.24h7.69l.27,5.14H32.22L34.34.24Z"/><path class="cls-1" d="M45.78,26.35h7.39l-5,15.84H40.8Zm.64-2.66.14-10.57H54l-.14,10.57Zm2.37-13,0-10.57H56.2V10.69Zm36.44,9.93-.94,5.32H73.66L71.74,36.81H83.21l-.94,5.32H51.9l.94-5.32H64.18L66.1,25.94H55.47l.94-5.32H67L69,9.75H57.74l.94-5.32H69.56L69.62,0h7.94L77.5,4.43H88.67l-.94,5.32H76.52L74.6,20.62Z"/><path class="cls-1" d="M111.43.35l-.93,5.32-6.57.3-1,5.49h9.67L113.21.3h7.48l-.54,11.16h9l-.93,5.32h-8.28l-.37,8.1,8.06-4.79-1.09,6.2-7.27,4.32L119,37h5L123,42.31H111.09l.33-7.09-7.88,4.66,1.08-6.14,7.09-4.2.65-12.76H102l-1.47,8.33,7.45-2-.94,5.32-7.45,2-1,5.49-2.51,6.39H88.28l2.82-6.44.58-3.31-6.53,1.77L86.09,29l6.53-1.77,1.85-10.46H87.83l.94-5.32H95.4l.91-5.14-5.5.24.94-5.32Zm17.25.6-.16,8.74h-5.83L122.84,1Z"/><path class="cls-1" d="M143.32.06l-4.57,12.35h1.34l-5.27,29.9h-7.56l4.22-23.93h-2.6L135.68.06Zm-.51,10.28h7.56l-5.63,32h-7.57Zm8-2.54H143.3l.82-7.74h7.52Zm22.85-6.68-6.24,35.4-1.78,5.79H158l1.89-6,5.27-29.9H152.36l.94-5.32Z"/></g></g></svg>