<svg xmlns="http://www.w3.org/2000/svg" xmlns:xlink="http://www.w3.org/1999/xlink" viewBox="0 0 59.79 49.16"><defs><style>.cls-1,.cls-2{fill:none;}.cls-1{clip-rule:evenodd;}.cls-3{clip-path:url(#clip-path);}.cls-4{clip-path:url(#clip-path-2);}.cls-5{fill:#fff;}.cls-6{clip-path:url(#clip-path-3);}</style><clipPath id="clip-path" transform="translate(250.27 -1.46)"><path class="cls-1" d="M-234.18,17.24c-1.42,0-2.85-.93-2.85-2.31s1.43-2.3,2.85-2.3a2.2,2.2,0,0,1,2.36,2.3A2.22,2.22,0,0,1-234.18,17.24ZM-221,12.63a2.19,2.19,0,0,1,2.36,2.3,2.2,2.2,0,0,1-2.36,2.3c-1.41,0-2.84-.92-2.84-2.3S-222.37,12.63-221,12.63Zm10.16,5c.61,0,1.22.05,1.82.11-1.63-7.42-9.77-12.95-19.07-12.95-10.38,0-18.89,6.91-18.89,15.69,0,5.06,2.83,9.22,7.56,12.45l-1.89,5.54,6.6-3.23a32.79,32.79,0,0,0,6.62.93c.59,0,1.18,0,1.76-.08a13.36,13.36,0,0,1-.58-3.86C-226.87,24.16-219.77,17.62-210.8,17.62Z"/></clipPath><clipPath id="clip-path-2" transform="translate(250.27 -1.46)"><rect class="cls-2" x="-817.64" y="-3735.62" width="1275.59" height="4003.49"/></clipPath><clipPath id="clip-path-3" transform="translate(250.27 -1.46)"><path class="cls-1" d="M-204.64,29.76a2,2,0,0,1-1.87-1.85,2,2,0,0,1,1.87-1.85,2.15,2.15,0,0,1,2.36,1.85A2.15,2.15,0,0,1-204.64,29.76Zm-10.37,0a2,2,0,0,1-1.89-1.85A2,2,0,0,1-215,26.06a2.15,2.15,0,0,1,2.36,1.85A2.14,2.14,0,0,1-215,29.76Zm21.22,2.31c0-7.38-7.55-13.39-16-13.39-9,0-16,6-16,13.39s7.06,13.39,16,13.39a24.33,24.33,0,0,0,5.66-.93L-199,47.3l-1.42-4.61C-196.61,39.91-193.79,36.23-193.79,32.07Z"/></clipPath></defs><title>资源 62</title><g id="图层_2" data-name="图层 2"><g id="图层_1-2" data-name="图层 1"><g class="cls-3"><g class="cls-4"><rect class="cls-5" width="44.61" height="40.32"/></g></g><g class="cls-6"><g class="cls-4"><rect class="cls-5" x="21.09" y="13.89" width="38.7" height="35.27"/></g></g></g></g></svg>