<svg xmlns="http://www.w3.org/2000/svg" xmlns:xlink="http://www.w3.org/1999/xlink" viewBox="0 0 60.74 49.27"><defs><style>.cls-1,.cls-2{fill:none;}.cls-1{clip-rule:evenodd;}.cls-3{clip-path:url(#clip-path);}.cls-4{clip-path:url(#clip-path-2);}.cls-5{fill:#fff;}</style><clipPath id="clip-path"><path class="cls-1" d="M46.64,3.72a18.35,18.35,0,0,0-7.28.07c-.07,0-.14.07-.2.08a.11.11,0,0,0,0,0A2.09,2.09,0,0,0,39.68,8a10.26,10.26,0,0,0,1.92-.45,11.27,11.27,0,0,1,10.51,5.12,9.25,9.25,0,0,1,.65,6.94,6,6,0,0,0-.43,2,1.94,1.94,0,0,0,2.12,1.88c1,0,1.8-.13,2-1.76h0C60,10.36,52.26,5,46.64,3.72Zm1.06,16.8a1.44,1.44,0,0,0,1.43-1.21.77.77,0,0,0,0-.15c1.09-9.63-8-8-8-8a1.44,1.44,0,1,0,0,2.88c6.52-1.42,5.09,5,5.09,5A1.44,1.44,0,0,0,47.7,20.52ZM25.77,33.26a1,1,0,0,1-1.55-.15,1.27,1.27,0,0,1,.38-1.66,1.08,1.08,0,0,1,1.64.14A1.37,1.37,0,0,1,25.77,33.26Zm-5.24,4.4c-1.66.19-3-.76-3-2.13a3.16,3.16,0,0,1,2.85-3c1.91-.18,3.15.9,3.15,2.28A3.18,3.18,0,0,1,20.53,37.66Zm2.24-11.53c-8.89,1-7.86,9.23-7.86,9.23a4.51,4.51,0,0,0,2.38,3.93,10.39,10.39,0,0,0,13.26-2.35C33.27,33.5,31.68,25.11,22.77,26.13ZM24.53,43c-8.84.4-16-4-16-9.78s7.15-10.49,16-10.89,16,3.2,16,9S33.38,42.57,24.53,43Zm18.84-18.9c-2.1-.4-1.08-1.51-1.08-1.51s2.05-3.34-.41-5.77c-3.05-3-10.47.38-10.47.38-2.83.86-2.08-.4-1.68-2.54,0-2.53-.87-6.81-8.42-4.29s-14,11.46-14,11.46C2.81,27.71,3.4,32.28,3.4,32.28c1.12,10.1,12,12.88,20.48,13.53,8.9.69,20.93-3,24.57-10.65S45.47,24.49,43.37,24.07Z"/></clipPath><clipPath id="clip-path-2"><rect class="cls-2" x="3.37" y="3.37" width="53.99" height="42.52"/></clipPath></defs><title>资源 59</title><g id="图层_2" data-name="图层 2"><g id="图层_1-2" data-name="图层 1"><g class="cls-3"><g class="cls-4"><rect class="cls-5" width="60.74" height="49.27"/></g></g></g></g></svg>