<?xml version="1.0" standalone="no"?><!DOCTYPE svg PUBLIC "-//W3C//DTD SVG 1.1//EN" "http://www.w3.org/Graphics/SVG/1.1/DTD/svg11.dtd"><svg t="1586849325989" class="icon" viewBox="0 0 1024 1024" version="1.1" xmlns="http://www.w3.org/2000/svg" p-id="3243" xmlns:xlink="http://www.w3.org/1999/xlink" width="200" height="200"><defs><style type="text/css"></style></defs><path d="M801.838 456.422a26.127 26.127 0 0 1-26.127-26.127c0-145.408-118.298-263.706-263.711-263.706S248.294 284.887 248.294 430.295a26.127 26.127 0 0 1-52.254 0c0-174.218 141.737-315.955 315.955-315.955s315.96 141.737 315.96 315.955a26.117 26.117 0 0 1-26.117 26.127z" fill="#2C2C2C" p-id="3244"></path><path d="M274.186 728.745h-26.644c-63.002 0-114.258-51.256-114.258-114.253v-96.061c0-63.002 51.256-114.258 114.258-114.258h26.644a26.127 26.127 0 0 1 26.128 26.127v272.323a26.127 26.127 0 0 1-26.128 26.122z m-26.644-272.323c-34.192 0-62.009 27.817-62.009 62.009v96.061c0 34.192 27.817 62.003 62.009 62.003h0.522V456.422h-0.522z m528.926 272.323h-26.65a26.127 26.127 0 0 1-26.126-26.127V430.295a26.127 26.127 0 0 1 26.127-26.127h26.65c63.006 0 114.257 51.256 114.257 114.258v96.061c0 63.002-51.256 114.258-114.258 114.258z m-0.527-52.255h0.527c34.197 0 62.009-27.817 62.009-62.003v-96.061c0-34.192-27.817-62.009-62.009-62.009h-0.527V676.49z" fill="#2C2C2C" p-id="3245"></path><path d="M575.672 887.885a26.127 26.127 0 1 1 0-52.255c68.46 0 119.204-16.328 150.836-48.532 35.092-35.733 34.713-79.084 34.682-80.917-0.26-14.351 11.106-26.322 25.457-26.685 14.53-0.277 26.307 10.823 26.773 25.17 0.092 2.672 1.561 66.155-48.748 118.133-41.8 43.188-105.39 65.086-189 65.086z" fill="#2C2C2C" p-id="3246"></path><path d="M583.849 881.044a26.563 26.563 0 0 1-26.563 26.563H467.86a26.568 26.568 0 0 1-26.567-26.563v-37.642a26.568 26.568 0 0 1 26.567-26.562h89.421a26.563 26.563 0 0 1 26.563 26.562v37.642z" fill="#2C2C2C" p-id="3247"></path></svg>