<?xml version="1.0" standalone="no"?><!DOCTYPE svg PUBLIC "-//W3C//DTD SVG 1.1//EN" "http://www.w3.org/Graphics/SVG/1.1/DTD/svg11.dtd"><svg t="1586855719578" class="icon" viewBox="0 0 1024 1024" version="1.1" xmlns="http://www.w3.org/2000/svg" p-id="4163" xmlns:xlink="http://www.w3.org/1999/xlink" width="200" height="200"><defs><style type="text/css"></style></defs><path d="M445.44 721.92c-69.12 0-135.68-28.16-184.32-76.8-102.4-102.4-102.4-268.8 0-368.64 48.64-48.64 115.2-76.8 184.32-76.8s135.68 28.16 184.32 76.8c102.4 102.4 102.4 268.8 0 368.64-48.64 48.64-112.64 76.8-184.32 76.8z m0-473.6c-56.32 0-110.08 23.04-148.48 61.44-81.92 81.92-81.92 215.04 0 296.96 38.4 38.4 92.16 61.44 148.48 61.44s110.08-23.04 148.48-61.44c81.92-81.92 81.92-215.04 0-296.96-38.4-38.4-92.16-61.44-148.48-61.44z" fill="#333333" p-id="4164"></path><path d="M611.6864 590.1312l271.5392 271.5136-36.224 36.1984L575.488 626.3296z" fill="#333333" p-id="4165"></path></svg>