<?xml version="1.0" standalone="no"?><!DOCTYPE svg PUBLIC "-//W3C//DTD SVG 1.1//EN" "http://www.w3.org/Graphics/SVG/1.1/DTD/svg11.dtd"><svg t="1586849275670" class="icon" viewBox="0 0 1024 1024" version="1.1" xmlns="http://www.w3.org/2000/svg" p-id="2332" xmlns:xlink="http://www.w3.org/1999/xlink" width="200" height="200"><defs><style type="text/css"></style></defs><path d="M819.83 683.47h-50.69c-9.34 0-16.92-7.57-16.92-16.92s7.57-16.92 16.92-16.92h48.78c0.1-0.85 0.27-1.69 0.5-2.52l79.08-283.16H250.33l88.39 282.38c0.53 1.5 0.96 2.55 1.3 3.29h220.37c9.34 0 16.92 7.57 16.92 16.92s-7.57 16.92-16.92 16.92H337.54c-21.72 0-28.6-19.74-30.86-26.23-0.06-0.17-0.12-0.34-0.17-0.51l-90.69-289.74c-0.51-1.64-0.77-3.34-0.77-5.05 0-17.53 14.26-31.8 31.8-31.8h653.9c17.53 0 31.8 14.26 31.8 31.8 0 1.54-0.21 3.07-0.62 4.55L851.51 654.4c-1.39 16.26-15.07 29.07-31.68 29.07z" fill="#353535" p-id="2333"></path><path d="M666.93 683.47h-58.85c-9.34 0-16.92-7.57-16.92-16.92s7.57-16.92 16.92-16.92h58.85c9.34 0 16.92 7.57 16.92 16.92s-7.58 16.92-16.92 16.92zM328.96 679.59c-7.15 0-13.79-4.57-16.1-11.74L157.17 184.28h-42.24c-9.34 0-16.92-7.57-16.92-16.92 0-9.34 7.57-16.92 16.92-16.92h54.57c7.35 0 13.85 4.74 16.1 11.73l159.47 495.31c2.86 8.89-2.02 18.42-10.92 21.29-1.73 0.56-3.47 0.82-5.19 0.82zM438 889.5c-43.18 0-78.31-35.13-78.31-78.31s35.13-78.31 78.31-78.31 78.31 35.13 78.31 78.31c-0.01 43.18-35.13 78.31-78.31 78.31z m0-122.78c-24.52 0-44.48 19.95-44.48 44.47s19.95 44.48 44.48 44.48 44.47-19.95 44.47-44.48-19.95-44.47-44.47-44.47zM726.34 889.5c-43.18 0-78.31-35.13-78.31-78.31s35.13-78.31 78.31-78.31 78.31 35.13 78.31 78.31-35.13 78.31-78.31 78.31z m0-122.78c-24.52 0-44.47 19.95-44.47 44.47s19.95 44.48 44.47 44.48 44.48-19.95 44.48-44.48-19.95-44.47-44.48-44.47z" fill="#353535" p-id="2334"></path></svg>