<?xml version="1.0" standalone="no"?><!DOCTYPE svg PUBLIC "-//W3C//DTD SVG 1.1//EN" "http://www.w3.org/Graphics/SVG/1.1/DTD/svg11.dtd"><svg t="1586875907637" class="icon" viewBox="0 0 1024 1024" version="1.1" xmlns="http://www.w3.org/2000/svg" p-id="8322" xmlns:xlink="http://www.w3.org/1999/xlink" width="200" height="200"><defs><style type="text/css"></style></defs><path d="M62.912 711.552c-6.048 0-12.112-2.256-16.784-6.816a24.048 24.048 0 0 1-0.384-33.968l446.976-457.344a24.016 24.016 0 0 1 34.336 33.568L80.08 704.336a24 24 0 0 1-17.168 7.216z" p-id="8323"></path><path d="M967.248 711.552c-6.24 0-12.464-2.4-17.168-7.216L503.104 246.976a24.048 24.048 0 0 1 0.384-33.952 24.064 24.064 0 0 1 33.952 0.384l446.976 457.344a24.064 24.064 0 0 1-0.384 33.968 24.032 24.032 0 0 1-16.784 6.832z" p-id="8324"></path><path d="M969.968 715.328H59.968a24 24 0 0 1 0-48h910a24 24 0 0 1 0 48z" p-id="8325"></path></svg>